<?xml version="1.0" encoding="UTF-8"?>
<svg xmlns="http://www.w3.org/2000/svg" id="Layer_1" data-name="Layer 1" viewBox="0 0 24 24">
  <path d="M5.5,9c.558,0,1.076-.195,1.5-.52v1.52h1v-2.021c.875,.015,1.66-.339,2.229-.979h2.271c1.379,0,2.5-1.121,2.5-2.5,0-1.053-.646-1.97-1.627-2.333-.661-.856-1.706-1.326-2.85-1.123-.464-.652-1.208-1.044-2.023-1.044-.809,0-1.566,.4-2.033,1.06-1.423,.254-2.467,1.478-2.467,2.94,0,.156,.015,.312,.044,.477-.652,.464-1.044,1.208-1.044,2.023,0,1.379,1.121,2.5,2.5,2.5Zm-.662-3.837l.378-.188c-.657-1.388,.296-2.998,1.856-2.979,.571-1.431,2.552-1.219,2.952,.22,1-.437,2.175-.168,2.727,.805l.171,.05c.645,.19,1.078,.765,1.078,1.43,0,.827-.673,1.5-1.5,1.5h-2.758c-.576,.954-1.717,1.221-2.718,.784-.251,.656-.779,1.238-1.524,1.216-1.542,.045-2.072-2.196-.662-2.837Zm18.343,4.491c-.986-.928-2.658-.851-3.548,.166l-3.732,4.103c-.314-1.108-1.335-1.923-2.543-1.923H2.5c-1.379,0-2.5,1.121-2.5,2.5v7c0,1.379,1.121,2.5,2.5,2.5H13.725l9.638-10.817c.912-1.022,.831-2.605-.182-3.528Zm-.564,2.862l-9.341,10.483H2.5c-.827,0-1.5-.673-1.5-1.5v-7c0-.827,.673-1.5,1.5-1.5H13.357c.905,0,1.643,.737,1.643,1.643,0,.812-.605,1.511-1.403,1.624l-5.661,.737,.129,.992,5.667-.738c1.021-.146,1.845-.878,2.146-1.823l4.496-4.94c.535-.613,1.541-.659,2.134-.101,.609,.556,.658,1.508,.109,2.123Z"/>
</svg>
