<?xml version="1.0" encoding="UTF-8"?>
<svg xmlns="http://www.w3.org/2000/svg" id="Layer_1" data-name="Layer 1" viewBox="0 0 24 24">
  <path d="M10.324,10.354c.462,.452,1.069,.678,1.676,.678s1.214-.226,1.676-.678l1.859-1.818c.944-.944,1.465-2.2,1.465-3.536s-.521-2.592-1.465-3.536c-.945-.944-2.2-1.464-3.535-1.464s-2.592,.52-3.535,1.464c-.945,.944-1.465,2.2-1.465,3.536s.523,2.595,1.478,3.548l1.847,1.806Zm-1.152-8.184c.755-.755,1.759-1.171,2.828-1.171s2.072,.416,2.828,1.171c.756,.755,1.172,1.76,1.172,2.829s-.416,2.074-1.168,2.825l-1.855,1.814c-.538,.526-1.415,.526-1.953,0l-1.843-1.802c-.761-.761-1.181-1.768-1.181-2.837s.416-2.074,1.172-2.829Zm13.328,3.829c-.651,0-1.201,.419-1.408,1h-2.592c-.276,0-.5,.224-.5,.5s.224,.5,.5,.5h2.5v8h-1.258c-.658,0-1.303-.267-1.768-.732l-3.121-3.121c-.195-.195-.512-.195-.707,0s-.195,.512,0,.707l3.121,3.121c.651,.651,1.553,1.025,2.475,1.025h1.258v5H11v-2.257c0-.935-.364-1.814-1.025-2.475l-2.242-2.242c-.661-.661-1.54-1.025-2.475-1.025H3v-6h2.5c.276,0,.5-.224,.5-.5s-.224-.5-.5-.5H2.908c-.207-.581-.757-1-1.408-1-.827,0-1.5,.673-1.5,1.5v15c0,.827,.673,1.5,1.5,1.5,.651,0,1.201-.419,1.408-1H21.092c.207,.581,.757,1,1.408,1,.827,0,1.5-.673,1.5-1.5V7.5c0-.827-.673-1.5-1.5-1.5ZM5.257,15c.668,0,1.296,.26,1.768,.732l2.242,2.242c.472,.472,.732,1.1,.732,1.768v2.257H3v-7h2.257ZM1.5,23c-.276,0-.5-.224-.5-.5V7.5c0-.276,.224-.5,.5-.5s.5,.224,.5,.5v15c0,.276-.224,.5-.5,.5Zm21.5-.5c0,.276-.225,.5-.5,.5s-.5-.224-.5-.5V7.5c0-.276,.225-.5,.5-.5s.5,.224,.5,.5v15ZM12,7c1.103,0,2-.897,2-2s-.897-2-2-2-2,.897-2,2,.897,2,2,2Zm0-3c.551,0,1,.449,1,1s-.449,1-1,1-1-.449-1-1,.449-1,1-1Z"/>
</svg>
